<?xml version="1.0" encoding="utf-8"?>
<!-- Generator: Adobe Illustrator 16.0.0, SVG Export Plug-In . SVG Version: 6.00 Build 0)  -->
<!DOCTYPE svg PUBLIC "-//W3C//DTD SVG 1.1//EN" "http://www.w3.org/Graphics/SVG/1.1/DTD/svg11.dtd">
<svg version="1.1" id="Layer_1" xmlns="http://www.w3.org/2000/svg" xmlns:xlink="http://www.w3.org/1999/xlink" x="0px" y="0px"
	 width="1000px" height="700px" viewBox="0 0 1000 700" enable-background="new 0 0 1000 700" xml:space="preserve">
<path fill="#494368" d="M258.115,572.457c3.965,0,7.343,1.395,10.135,4.186c2.791,2.793,4.187,6.17,4.187,10.137v49.578h-50.68
	c-3.966,0-7.345-1.395-10.136-4.188c-2.792-2.789-4.187-6.17-4.187-10.135v-23.578h53.104v-11.678c0-0.662-0.239-1.23-0.716-1.707
	c-0.479-0.479-1.047-0.717-1.707-0.717h-50.681v-11.898H258.115z M260.538,624.459v-14.102h-41.205v11.678
	c0,0.66,0.238,1.23,0.716,1.707c0.477,0.479,1.047,0.717,1.708,0.717H260.538z"/>
<polygon fill="#494368" points="375.229,572.457 387.899,572.457 363.882,636.357 354.186,636.357 332.702,588.873 312.429,636.357 
	312.209,636.248 312.32,636.357 302.734,636.357 277.615,572.457 290.284,572.457 307.582,614.873 325.981,572.457 339.533,572.457 
	359.034,614.873 "/>
<path fill="#494368" d="M442.436,572.457c3.967,0,7.345,1.395,10.137,4.186c2.791,2.793,4.186,6.17,4.186,10.137v23.576h-53.104
	v11.68c0,0.66,0.238,1.23,0.717,1.707c0.477,0.479,1.046,0.717,1.707,0.717h50.68v11.898h-50.68c-3.966,0-7.345-1.395-10.135-4.186
	c-2.793-2.791-4.187-6.17-4.187-10.137v-35.256c0-3.967,1.394-7.344,4.187-10.137c2.79-2.791,6.169-4.186,10.135-4.186H442.436z
	 M403.654,598.457h41.206v-11.678c0-0.66-0.24-1.23-0.716-1.707c-0.479-0.479-1.047-0.717-1.709-0.717h-36.357
	c-0.661,0-1.23,0.238-1.707,0.717c-0.479,0.477-0.717,1.047-0.717,1.707V598.457z"/>
<path fill="#494368" d="M532.668,586.779v2.424H520.77v-2.424c0-0.662-0.24-1.229-0.716-1.709c-0.479-0.477-1.047-0.715-1.708-0.715
	h-36.358c-0.661,0-1.231,0.238-1.707,0.715c-0.479,0.48-0.716,1.047-0.716,1.709v9.254c0,0.662,0.237,1.23,0.716,1.707
	c0.476,0.48,1.046,0.717,1.707,0.717h36.358c3.966,0,7.344,1.396,10.136,4.188c2.79,2.791,4.187,6.17,4.187,10.135v9.256
	c0,3.967-1.396,7.346-4.187,10.137c-2.792,2.791-6.17,4.186-10.136,4.186h-36.358c-3.966,0-7.345-1.395-10.136-4.186
	c-2.792-2.791-4.187-6.17-4.187-10.137v-2.424h11.9v2.424c0,0.66,0.237,1.23,0.716,1.707c0.476,0.479,1.046,0.717,1.707,0.717
	h36.358c0.661,0,1.229-0.238,1.708-0.717c0.476-0.477,0.716-1.047,0.716-1.707v-9.256c0-0.66-0.24-1.229-0.716-1.707
	c-0.479-0.477-1.047-0.717-1.708-0.717h-36.358c-3.966,0-7.345-1.393-10.136-4.186c-2.792-2.791-4.187-6.17-4.187-10.137v-9.254
	c0-3.967,1.395-7.344,4.187-10.137c2.791-2.791,6.17-4.186,10.136-4.186h36.358c3.966,0,7.344,1.395,10.136,4.186
	C531.271,579.436,532.668,582.812,532.668,586.779"/>
<path fill="#494368" d="M557.896,572.457h36.357c3.967,0,7.344,1.395,10.137,4.186c2.79,2.793,4.186,6.17,4.186,10.137v35.256
	c0,3.967-1.396,7.346-4.186,10.137c-2.793,2.791-6.17,4.186-10.137,4.186h-36.357c-3.967,0-7.346-1.395-10.136-4.186
	c-2.792-2.791-4.188-6.17-4.188-10.137v-35.256c0-3.967,1.396-7.344,4.188-10.137C550.551,573.852,553.93,572.457,557.896,572.457
	 M594.254,584.355h-36.357c-0.662,0-1.231,0.238-1.708,0.715c-0.478,0.48-0.716,1.049-0.716,1.709v35.256
	c0,0.66,0.238,1.23,0.716,1.707c0.477,0.479,1.046,0.717,1.708,0.717h36.357c0.661,0,1.229-0.238,1.707-0.717
	c0.478-0.477,0.717-1.047,0.717-1.707v-35.256c0-0.66-0.239-1.229-0.717-1.709C595.483,584.594,594.915,584.355,594.254,584.355"/>
<path fill="#494368" d="M701.783,572.457c3.966,0,7.343,1.395,10.136,4.186c2.79,2.793,4.187,6.17,4.187,10.137v49.578h-11.788
	v-49.578c0-0.66-0.239-1.229-0.717-1.709c-0.479-0.477-1.084-0.715-1.817-0.715h-25.23c-0.66,0-1.231,0.238-1.707,0.715
	c-0.479,0.48-0.717,1.049-0.717,1.709v49.578H662.23v-49.578c0-0.66-0.239-1.229-0.717-1.709c-0.478-0.477-1.045-0.715-1.707-0.715
	h-25.34c-0.661,0-1.231,0.238-1.709,0.715c-0.479,0.48-0.716,1.049-0.716,1.709v49.578h-11.897v-63.9H701.783z"/>
<path fill="#494368" d="M778.242,572.457c3.968,0,7.346,1.395,10.138,4.186c2.791,2.793,4.186,6.17,4.186,10.137v23.576h-53.104
	v11.68c0,0.66,0.237,1.23,0.717,1.707c0.477,0.479,1.046,0.717,1.707,0.717h50.68v11.898h-50.68c-3.966,0-7.345-1.395-10.135-4.186
	c-2.793-2.791-4.188-6.17-4.188-10.137v-35.256c0-3.967,1.395-7.344,4.188-10.137c2.79-2.791,6.169-4.186,10.135-4.186H778.242z
	 M739.462,598.457h41.206v-11.678c0-0.66-0.24-1.23-0.717-1.707c-0.479-0.479-1.047-0.717-1.709-0.717h-36.356
	c-0.661,0-1.23,0.238-1.707,0.717c-0.479,0.477-0.717,1.047-0.717,1.707V598.457z"/>
<g>
	<g id="XMLID_13_">
		
			<linearGradient id="XMLID_3_" gradientUnits="userSpaceOnUse" x1="1687.8301" y1="-1363.5381" x2="2328.874" y2="-1513.3926" gradientTransform="matrix(0.2 0 0 -0.2 114.0001 44.0004)">
			<stop  offset="0" style="stop-color:#FF6533"/>
			<stop  offset="0.1573" style="stop-color:#FF5633"/>
			<stop  offset="0.4342" style="stop-color:#FF4333"/>
			<stop  offset="0.7142" style="stop-color:#FF3733"/>
			<stop  offset="1" style="stop-color:#FF3333"/>
		</linearGradient>
		<path id="XMLID_16_" fill="url(#XMLID_3_)" d="M681.787,220.076c0-27.975-7.328-54.198-20.23-76.926
			c-34.217-35.216-108.645-43.375-127.129-0.167c-18.98,44.291,31.887,93.577,54.115,89.664c28.305-4.996-4.996-69.933-4.996-69.933
			c43.293,81.587,33.301,56.611-44.957,131.539c-78.257,74.93-158.181,233.026-169.835,239.69c-0.5,0.332-1,0.58-1.581,0.828
			h306.952c5.414,0,8.91-5.74,6.496-10.568l-80.254-158.85c-1.748-3.414-0.504-7.658,2.83-9.576
			C650.148,328.805,681.787,278.187,681.787,220.076z"/>
	</g>
	<g id="XMLID_9_">
		
			<linearGradient id="XMLID_6_" gradientUnits="userSpaceOnUse" x1="1587.4961" y1="-1151.0596" x2="2736.3857" y2="-2041.8654" gradientTransform="matrix(0.2 0 0 -0.2 114.0001 44.0004)">
			<stop  offset="0" style="stop-color:#BF3338"/>
			<stop  offset="1" style="stop-color:#FF3333"/>
		</linearGradient>
		<path id="XMLID_11_" fill="url(#XMLID_6_)" d="M681.787,220.076c0-27.975-7.328-54.198-20.23-76.926
			c-34.217-35.216-108.645-43.375-127.129-0.167c-18.98,44.291,31.887,93.577,54.115,89.664c28.305-4.996-4.996-69.933-4.996-69.933
			c43.293,81.587,33.301,56.611-44.957,131.539c-78.257,74.93-158.181,233.026-169.835,239.69c-0.5,0.332-1,0.58-1.581,0.828
			h306.952c5.414,0,8.91-5.74,6.496-10.568l-80.254-158.85c-1.748-3.414-0.504-7.658,2.83-9.576
			C650.148,328.805,681.787,278.187,681.787,220.076z"/>
	</g>
	
		<linearGradient id="XMLID_7_" gradientUnits="userSpaceOnUse" x1="1625.041" y1="-1326.4355" x2="1791.5542" y2="-1501.2744" gradientTransform="matrix(0.2 0 0 -0.2 114.0001 44.0004)">
		<stop  offset="0" style="stop-color:#FF6533"/>
		<stop  offset="0.1573" style="stop-color:#FF5633"/>
		<stop  offset="0.4342" style="stop-color:#FF4333"/>
		<stop  offset="0.7142" style="stop-color:#FF3733"/>
		<stop  offset="1" style="stop-color:#FF3333"/>
	</linearGradient>
	<path id="XMLID_8_" fill="url(#XMLID_7_)" d="M368.754,533.943c11.654-6.664,91.579-164.846,169.835-239.773
		c78.258-74.928,88.25-49.952,44.957-131.539c0,0-165.674,232.276-225.616,347.164"/>
	<g id="XMLID_4_">
		
			<linearGradient id="XMLID_10_" gradientUnits="userSpaceOnUse" x1="1927.8018" y1="-1627.3989" x2="1877.8495" y2="-911.4163" gradientTransform="matrix(0.2 0 0 -0.2 114.0001 44.0004)">
			<stop  offset="0" style="stop-color:#FF6533"/>
			<stop  offset="0.1573" style="stop-color:#FF5633"/>
			<stop  offset="0.4342" style="stop-color:#FF4333"/>
			<stop  offset="0.7142" style="stop-color:#FF3733"/>
			<stop  offset="1" style="stop-color:#FF3333"/>
		</linearGradient>
		<path id="XMLID_5_" fill="url(#XMLID_10_)" d="M392.065,325.809C503.959,120.088,518.61,99.358,576.889,99.358
			c30.635,0,61.52,13.819,81.504,38.381c-27.225-43.875-75.428-73.264-130.623-74.097l0,0H337.701c-3.996,0-7.244,3.248-7.244,7.244
			V221.74v154.85v77.428C341.78,424.795,361.013,383.005,392.065,325.809z"/>
	</g>
	
		<linearGradient id="XMLID_12_" gradientUnits="userSpaceOnUse" x1="1711.3789" y1="-1314.1738" x2="1947.891" y2="-1475.0017" gradientTransform="matrix(0.2 0 0 -0.2 114.0001 44.0004)">
		<stop  offset="0" style="stop-color:#FBB040"/>
		<stop  offset="1" style="stop-color:#FB8840"/>
	</linearGradient>
	<path id="XMLID_1_" fill="url(#XMLID_12_)" d="M538.59,294.17c-78.257,74.927-158.181,233.109-169.835,239.773
		c-11.654,6.658-31.22,7.492-41.627-4.164c-11.073-12.406-28.305-32.473,64.938-203.97
		C503.959,120.088,518.61,99.358,576.889,99.358c30.635,0,61.52,13.819,81.504,38.381c1.082,1.748,2.162,3.579,3.244,5.411
		c-34.213-35.216-108.644-43.375-127.124-0.167c-18.983,44.291,31.888,93.577,54.114,89.664c28.307-4.996-4.996-69.933-4.996-69.933
		C626.84,244.218,616.848,219.242,538.59,294.17z"/>
</g>
<path fill="none" d="M368.754,533.943c-0.413,0.234-0.837,0.461-1.269,0.682C367.933,534.422,368.349,534.211,368.754,533.943z"/>
<path fill="#494368" d="M792.457,311.317l0.016-0.016L681.427,209.419c0.236,3.521,0.36,7.074,0.36,10.657
	c0,10.062-0.97,19.891-2.781,29.419l67.387,61.831h-93.975H539.602h-15.58h-2.032h-0.075h-45.935h-0.218h-15.362H330.457h-76.85
	l76.85-70.513V221.74v-23.223L207.528,311.301l0.015,0.016h-0.109v90.717c0,41.024,39.473,74.39,88.007,74.39h27.799h64.732
	c6.581,0,12.994-0.619,19.167-1.783c0.006,0,0.012-0.002,0.019-0.002c39.33-7.42,68.821-37.15,68.821-72.604v-33.184v-0.069v-26.303
	H495.7h0.06h28.261v59.556c0,41.024,39.48,74.39,88.006,74.39h44.455h48.077c48.533,0,88.006-33.365,88.006-74.39v-90.717H792.457z"
	/>
</svg>
